<svg width="49" height="50" viewBox="0 0 49 50" fill="none" xmlns="http://www.w3.org/2000/svg">
<path d="M49 8.26087C49 6.08696 48.1667 4.16667 46.5 2.5C44.8333 0.833333 42.913 0 40.7391 0H7.26087C5.08696 0 3.16667 0.833333 1.5 2.5C-0.166667 4.16667 -1 6.08696 -1 8.26087V41.7391C-1 43.913 -0.166667 45.8333 1.5 47.5C3.16667 49.1667 5.08696 50 7.26087 50H24V31.087H17.913V22.8261H24V19.5652C24 16.7391 24.9239 14.2572 26.7717 12.1196C28.6196 9.98188 30.8116 8.91304 33.3478 8.91304H40.087V17.1739H33.3478C32.9855 17.1739 32.6413 17.3913 32.3152 17.8261C31.9891 18.2609 31.8261 18.8043 31.8261 19.4565V22.8261H40.087V31.087H31.8261V50H40.7391C42.913 50 44.8333 49.1667 46.5 47.5C48.1667 45.8333 49 43.913 49 41.7391V8.26087Z" fill="#708B7D"/>
</svg>
