<svg width="51" height="51" viewBox="0 0 51 51" fill="none" xmlns="http://www.w3.org/2000/svg">
<path d="M25.4931 16.9964C20.8108 16.9964 16.9897 20.8176 16.9897 25.5C16.9897 30.1824 20.8108 34.0036 25.4931 34.0036C30.1755 34.0036 33.9966 30.1824 33.9966 25.5C33.9966 20.8176 30.1755 16.9964 25.4931 16.9964ZM50.9972 25.5C50.9972 21.9786 51.0291 18.4891 50.8313 14.9741C50.6335 10.8914 49.7022 7.26793 46.7167 4.28241C43.7249 1.29052 40.1079 0.365518 36.0252 0.167759C32.5039 -0.0299992 29.0145 0.00189749 25.4995 0.00189749C21.9782 0.00189749 18.4888 -0.0299992 14.9739 0.167759C10.8912 0.365518 7.2678 1.2969 4.28234 4.28241C1.29049 7.27431 0.365511 10.8914 0.167756 14.9741C-0.0299986 18.4955 0.00189745 21.985 0.00189745 25.5C0.00189745 29.015 -0.0299986 32.5109 0.167756 36.0259C0.365511 40.1086 1.29687 43.7321 4.28234 46.7176C7.27418 49.7095 10.8912 50.6345 14.9739 50.8322C18.4952 51.03 21.9846 50.9981 25.4995 50.9981C29.0208 50.9981 32.5103 51.03 36.0252 50.8322C40.1079 50.6345 43.7313 49.7031 46.7167 46.7176C49.7086 43.7257 50.6335 40.1086 50.8313 36.0259C51.0354 32.5109 50.9972 29.0214 50.9972 25.5ZM25.4931 38.584C18.2528 38.584 12.4094 32.7405 12.4094 25.5C12.4094 18.2595 18.2528 12.416 25.4931 12.416C32.7335 12.416 38.5769 18.2595 38.5769 25.5C38.5769 32.7405 32.7335 38.584 25.4931 38.584ZM39.1127 14.9359C37.4222 14.9359 36.0571 13.5707 36.0571 11.8802C36.0571 10.1897 37.4222 8.82448 39.1127 8.82448C40.8032 8.82448 42.1684 10.1897 42.1684 11.8802C42.1689 12.2816 42.0902 12.6792 41.9368 13.0501C41.7834 13.4211 41.5583 13.7581 41.2745 14.042C40.9907 14.3258 40.6536 14.5509 40.2827 14.7043C39.9117 14.8577 39.5141 14.9364 39.1127 14.9359Z" fill="#708B7D"/>
</svg>
