<svg width="94" height="65" viewBox="0 0 94 65" fill="none" xmlns="http://www.w3.org/2000/svg">
<path d="M4.37391 0.000103272C1.95905 0.000103272 0 2.13614 0 4.77167V59.6275C0 62.2625 1.95933 64.3989 4.37391 64.3989H89.6261C92.0409 64.3989 94 62.2629 94 59.6274V4.77156C94 2.13644 92.0407 0 89.6261 0H4.37382L4.37391 0.000103272ZM30.8231 7.75196C36.1887 7.75196 41.1166 9.78842 44.9848 13.1901C41.7303 16.3668 39.3029 20.5406 38.1052 25.2713H39.9823C41.0877 21.3686 43.0959 17.894 45.7427 15.1384C48.3896 17.894 50.3976 21.3686 51.5031 25.2713H53.4096C52.1953 20.5655 49.7645 16.4167 46.5124 13.2606C50.388 9.8158 55.3352 7.75185 60.7239 7.75185C73.1593 7.75185 83.2398 18.7501 83.2398 32.3181C83.2398 45.886 73.1593 56.8843 60.7239 56.8843C55.2456 56.8843 50.2223 54.7511 46.3185 51.2025C49.8106 47.8882 52.385 43.4452 53.5624 38.3907H51.7263C50.6809 42.633 48.5768 46.4062 45.7426 49.3568C42.9085 46.4062 40.8073 42.633 39.7619 38.3907H38.014C39.1982 43.372 41.7391 47.7529 45.1786 51.036C41.2819 54.5406 36.2783 56.6471 30.823 56.6471C18.3878 56.6471 8.30724 45.7017 8.30724 32.1995C8.30724 18.6973 18.3878 7.75196 30.8231 7.75196ZM59.0349 25.0213C56.3294 25.0213 53.6974 27.6016 53.6974 32.4462C53.6974 35.6588 55.1191 37.7786 57.9157 37.7786C58.7064 37.7789 59.9661 37.4262 59.9661 37.4262L60.3832 34.619C60.3832 34.619 59.2336 35.2534 58.4444 35.2534C56.7821 35.2534 56.115 33.8587 56.115 32.3598C56.115 29.319 57.5453 27.6458 59.1377 27.6458C60.3318 27.6458 61.2909 28.3829 61.2909 28.3829L61.6728 25.6526C61.6728 25.6526 60.253 25.0213 59.0348 25.0213H59.0349ZM81.7799 25.2585L79.427 25.2649L78.9218 28.6425C78.9218 28.6425 78.0372 27.3318 76.654 27.3318C74.5033 27.3318 72.7118 30.119 72.7118 33.3243C72.7118 35.3934 73.6653 37.4229 75.62 37.4229C77.0261 37.4229 77.8055 36.3687 77.8055 36.3687L77.7027 37.2691H79.9881L81.7799 25.2585ZM14.3878 25.2937L12.5137 37.3332H14.7726L16.2003 28.2548L16.4118 37.3332H18.0274L21.0413 28.2548L19.7047 37.3332H22.1046L23.9553 25.2937H20.2423L17.9305 32.6801L17.8101 25.2938H14.3879L14.3878 25.2937ZM37.9877 26.0756C37.9367 26.1315 36.6218 34.403 36.6218 35.4104C36.6218 36.9021 37.3882 37.5683 38.4665 37.5575C39.2392 37.5504 39.8376 37.3386 40.1145 37.2499C40.1434 37.2414 40.1996 37.2243 40.1996 37.2243L40.4905 35.0708C40.3324 35.0708 40.0994 35.1445 39.8941 35.1445C39.089 35.1445 38.9998 34.6772 39.051 34.3305L39.7003 29.9371H40.9252L41.2219 27.556H40.0675L40.3025 26.0756H37.9877ZM65.2918 27.287C63.7151 27.287 62.507 27.8541 62.507 27.8541L62.1721 30.0653C62.1721 30.0653 63.1699 29.6134 64.6779 29.6134C65.534 29.6134 66.1612 29.7203 66.1612 30.4979C66.1612 30.9702 66.0848 31.1452 66.0848 31.1452C66.0848 31.1452 65.4079 31.0812 65.0949 31.0812C63.1067 31.0812 61.0177 32.0317 61.0177 34.8913C61.0177 37.1445 62.3891 37.6601 63.2384 37.6601C64.8607 37.6601 65.5602 36.4844 65.5973 36.4808L65.5209 37.4615H67.5449L68.4496 30.3858C68.4499 27.3834 66.1058 27.2868 65.2918 27.2868V27.287ZM27.3246 27.2998C25.7422 27.2998 24.5281 27.867 24.5281 27.867L24.1932 30.0781C24.1932 30.0781 25.1943 29.6262 26.7077 29.6262C27.5671 29.6262 28.1971 29.7335 28.1971 30.5107C28.1971 30.9828 28.1206 31.1581 28.1206 31.1581C28.1206 31.1581 27.4417 31.094 27.1278 31.094C25.1319 31.094 23.0359 32.043 23.0359 34.901C23.0359 37.1529 24.41 37.6697 25.2625 37.6697C26.8906 37.6697 27.5927 36.4939 27.6301 36.4904L27.5537 37.471H29.5865L30.4941 30.3986C30.4941 27.398 28.1416 27.2997 27.3246 27.2997V27.2998ZM34.5038 27.2998C32.8046 27.2998 31.0787 28.048 31.0787 30.6037C31.0787 33.4994 33.9546 33.2068 33.9546 34.4266C33.9546 35.2408 33.152 35.308 32.5328 35.308C31.4612 35.308 30.4976 34.9041 30.4941 34.9234L30.1857 37.1345C30.2412 37.1533 30.8379 37.4454 32.7649 37.4454C33.2823 37.4454 36.2399 37.5887 36.2399 34.228C36.2399 31.0861 33.5021 31.7088 33.5021 30.4466C33.5021 29.8182 33.9467 29.6199 34.7623 29.6199C35.0862 29.6199 36.334 29.7321 36.334 29.7321L36.6218 27.4984C36.6218 27.4987 35.8167 27.2998 34.5039 27.2998H34.5038ZM45.1258 27.2998C42.7645 27.3003 41.0163 30.0703 41.0163 33.1993C41.0163 36.8109 43.2067 37.6697 45.073 37.6697C46.7956 37.6697 47.5551 37.2499 47.5551 37.2499L47.9664 34.7856C47.9664 34.7856 46.6559 35.4137 45.4725 35.4137C42.9508 35.4137 43.3927 33.366 43.3927 33.366H48.1661C48.1661 33.366 48.4746 31.7111 48.4746 31.0362C48.4746 29.3524 47.7043 27.2998 45.1259 27.2998H45.1258ZM53.677 27.4055C52.6132 27.4055 51.8233 28.9661 51.8233 28.9661L52.0348 27.5337H49.8258L48.3425 37.423H50.7835C51.4748 33.2 51.6011 29.7709 53.2509 30.3986C53.5397 28.764 53.8199 28.1325 54.1351 27.4408C54.1351 27.4408 53.9871 27.4055 53.6769 27.4055H53.677ZM73.455 27.4055C72.3913 27.4055 71.6015 28.9661 71.6015 28.9661L71.813 27.5337H69.604L68.1205 37.423H70.5587C71.2503 33.2 71.3798 29.7709 73.0291 30.3986C73.3184 28.764 73.5984 28.1325 73.9133 27.4408C73.9133 27.4408 73.7652 27.4055 73.4551 27.4055H73.455ZM45.114 29.5301C46.4551 29.5301 46.2098 31.1815 46.2098 31.3151H43.569C43.569 31.1446 43.8188 29.5301 45.1141 29.5301H45.114ZM77.0242 29.7224C77.8777 29.7221 78.3167 30.3511 78.3167 31.831C78.3167 33.1737 77.6959 34.9683 76.4102 34.9683C75.5568 34.9683 75.1558 34.1995 75.1558 32.9942C75.1558 31.0235 75.9823 29.7224 77.0241 29.7224H77.0242ZM65.2947 33.0872C65.6429 33.0877 65.7149 33.1246 65.7735 33.1417C65.7651 33.1402 65.7635 33.1419 65.797 33.1481C65.8411 33.5885 65.5531 35.6541 64.1608 35.6541C63.4429 35.6541 63.259 35.0313 63.259 34.6638C63.259 33.9472 63.601 33.0872 65.2947 33.0872ZM27.3276 33.0968C27.723 33.0973 27.7662 33.1455 27.8328 33.1577C27.877 33.5979 27.5878 35.6604 26.1907 35.6604C25.47 35.6604 25.2831 35.0407 25.2831 34.6734C25.2831 33.9573 25.6271 33.0968 27.3276 33.0968Z" fill="white"/>
</svg>
