<svg width="94" height="68" viewBox="0 0 94 68" fill="none" xmlns="http://www.w3.org/2000/svg">
<path d="M4.37391 0.0269644C1.95905 0.0269644 0 2.28075 0 5.06158V62.9416C0 65.7218 1.95933 67.9761 4.37391 67.9761H89.6261C92.0409 67.9761 94 65.7223 94 62.9415V5.06147C94 2.28108 92.0407 0.0268555 89.6261 0.0268555H4.37382L4.37391 0.0269644ZM30.8231 8.20618C36.1887 8.20618 41.1166 10.3549 44.9848 13.9441C41.7303 17.296 39.3029 21.6998 38.1052 26.6914H39.9823C41.0877 22.5735 43.0959 18.9073 45.7427 15.9999C48.3896 18.9073 50.3976 22.5735 51.5031 26.6914H53.4096C52.1953 21.7261 49.7645 17.3486 46.5124 14.0185C50.388 10.3838 55.3352 8.20607 60.7239 8.20607C73.1593 8.20607 83.2398 19.8107 83.2398 34.1266C83.2398 48.4425 73.1593 60.0471 60.7239 60.0471C55.2456 60.0471 50.2223 57.7964 46.3185 54.0521C49.8106 50.5551 52.385 45.8672 53.5624 40.534H51.7263C50.6809 45.0103 48.5768 48.9914 45.7426 52.1047C42.9085 48.9914 40.8073 45.0103 39.7619 40.534H38.014C39.1982 45.7899 41.7391 50.4123 45.1786 53.8764C41.2819 57.5742 36.2783 59.7969 30.823 59.7969C18.3878 59.7969 8.30724 48.2481 8.30724 34.0015C8.30724 19.7549 18.3878 8.20618 30.8231 8.20618ZM59.0349 26.4276C56.3294 26.4276 53.6974 29.1501 53.6974 34.2618C53.6974 37.6515 55.1191 39.8882 57.9157 39.8882C58.7064 39.8885 59.9661 39.5163 59.9661 39.5163L60.3832 36.5544C60.3832 36.5544 59.2336 37.2238 58.4444 37.2238C56.7821 37.2238 56.115 35.7522 56.115 34.1706C56.115 30.9622 57.5453 29.1967 59.1377 29.1967C60.3318 29.1967 61.2909 29.9745 61.2909 29.9745L61.6728 27.0937C61.6728 27.0937 60.253 26.4276 59.0348 26.4276H59.0349ZM81.7799 26.6778L79.427 26.6845L78.9218 30.2484C78.9218 30.2484 78.0372 28.8654 76.654 28.8654C74.5033 28.8654 72.7118 31.8063 72.7118 35.1884C72.7118 37.3715 73.6653 39.5129 75.62 39.5129C77.0261 39.5129 77.8055 38.4006 77.8055 38.4006L77.7027 39.3506H79.9881L81.7799 26.6778ZM14.3878 26.715L12.5137 39.4182H14.7726L16.2003 29.8393L16.4118 39.4182H18.0274L21.0413 29.8393L19.7047 39.4182H22.1046L23.9553 26.715H20.2423L17.9305 34.5087L17.8101 26.7151H14.3879L14.3878 26.715ZM37.9877 27.54C37.9367 27.5989 36.6218 36.3265 36.6218 37.3895C36.6218 38.9633 37.3882 39.6663 38.4665 39.6549C39.2392 39.6474 39.8376 39.4239 40.1145 39.3303C40.1434 39.3214 40.1996 39.3033 40.1996 39.3033L40.4905 37.0311C40.3324 37.0311 40.0994 37.1089 39.8941 37.1089C39.089 37.1089 38.9998 36.6158 39.051 36.25L39.7003 31.6144H40.9252L41.2219 29.102H40.0675L40.3025 27.54H37.9877ZM65.2918 28.8181C63.7151 28.8181 62.507 29.4166 62.507 29.4166L62.1721 31.7497C62.1721 31.7497 63.1699 31.2728 64.6779 31.2728C65.534 31.2728 66.1612 31.3856 66.1612 32.2061C66.1612 32.7044 66.0848 32.8891 66.0848 32.8891C66.0848 32.8891 65.4079 32.8215 65.0949 32.8215C63.1067 32.8215 61.0177 33.8245 61.0177 36.8418C61.0177 39.2191 62.3891 39.7631 63.2384 39.7631C64.8607 39.7631 65.5602 38.5226 65.5973 38.5188L65.5209 39.5535H67.5449L68.4496 32.0878C68.4499 28.9199 66.1058 28.818 65.2918 28.818V28.8181ZM27.3246 28.8317C25.7422 28.8317 24.5281 29.4301 24.5281 29.4301L24.1932 31.7632C24.1932 31.7632 25.1943 31.2864 26.7077 31.2864C27.5671 31.2864 28.1971 31.3995 28.1971 32.2196C28.1971 32.7177 28.1206 32.9026 28.1206 32.9026C28.1206 32.9026 27.4417 32.835 27.1278 32.835C25.1319 32.835 23.0359 33.8364 23.0359 36.8519C23.0359 39.228 24.41 39.7733 25.2625 39.7733C26.8906 39.7733 27.5927 38.5327 27.6301 38.529L27.5537 39.5636H29.5865L30.4941 32.1013C30.4941 28.9353 28.1416 28.8315 27.3246 28.8315V28.8317ZM34.5038 28.8317C32.8046 28.8317 31.0787 29.6212 31.0787 32.3177C31.0787 35.3731 33.9546 35.0644 33.9546 36.3514C33.9546 37.2105 33.152 37.2814 32.5328 37.2814C31.4612 37.2814 30.4976 36.8552 30.4941 36.8756L30.1857 39.2086C30.2412 39.2284 30.8379 39.5366 32.7649 39.5366C33.2823 39.5366 36.2399 39.6878 36.2399 36.1418C36.2399 32.8267 33.5021 33.4838 33.5021 32.152C33.5021 31.4889 33.9467 31.2797 34.7623 31.2797C35.0862 31.2797 36.334 31.398 36.334 31.398L36.6218 29.0412C36.6218 29.0416 35.8167 28.8317 34.5039 28.8317H34.5038ZM45.1258 28.8317C42.7645 28.8322 41.0163 31.7549 41.0163 35.0565C41.0163 38.8671 43.2067 39.7733 45.073 39.7733C46.7956 39.7733 47.5551 39.3303 47.5551 39.3303L47.9664 36.7302C47.9664 36.7302 46.6559 37.3929 45.4725 37.3929C42.9508 37.3929 43.3927 35.2323 43.3927 35.2323H48.1661C48.1661 35.2323 48.4746 33.4862 48.4746 32.7741C48.4746 30.9975 47.7043 28.8317 45.1259 28.8317H45.1258ZM53.677 28.9432C52.6132 28.9432 51.8233 30.5899 51.8233 30.5899L52.0348 29.0785H49.8258L48.3425 39.513H50.7835C51.4748 35.0571 51.6011 31.439 53.2509 32.1013C53.5397 30.3766 53.8199 29.7103 54.1351 28.9804C54.1351 28.9804 53.9871 28.9432 53.6769 28.9432H53.677ZM73.455 28.9432C72.3913 28.9432 71.6015 30.5899 71.6015 30.5899L71.813 29.0785H69.604L68.1205 39.513H70.5587C71.2503 35.0571 71.3798 31.439 73.0291 32.1013C73.3184 30.3766 73.5984 29.7103 73.9133 28.9804C73.9133 28.9804 73.7652 28.9432 73.4551 28.9432H73.455ZM45.114 31.185C46.4551 31.185 46.2098 32.9274 46.2098 33.0683H43.569C43.569 32.8885 43.8188 31.185 45.1141 31.185H45.114ZM77.0242 31.3879C77.8777 31.3875 78.3167 32.0512 78.3167 33.6127C78.3167 35.0294 77.6959 36.9229 76.4102 36.9229C75.5568 36.9229 75.1558 36.1117 75.1558 34.8401C75.1558 32.7607 75.9823 31.3879 77.0241 31.3879H77.0242ZM65.2947 34.9381C65.6429 34.9386 65.7149 34.9776 65.7735 34.9957C65.7651 34.994 65.7635 34.9959 65.797 35.0024C65.8411 35.4671 65.5531 37.6465 64.1608 37.6465C63.4429 37.6465 63.259 36.9894 63.259 36.6017C63.259 35.8456 63.601 34.9381 65.2947 34.9381ZM27.3276 34.9483C27.723 34.9488 27.7662 34.9997 27.8328 35.0125C27.877 35.477 27.5878 37.6532 26.1907 37.6532C25.47 37.6532 25.2831 36.9993 25.2831 36.6118C25.2831 35.8562 25.6271 34.9483 27.3276 34.9483Z" fill="#3D4056"/>
</svg>
