<svg width="86" height="65" viewBox="0 0 86 65" fill="none" xmlns="http://www.w3.org/2000/svg">
<path d="M27.8082 32.6187C27.8082 33.6529 27.4909 34.5124 26.8563 35.1972C26.2218 35.882 25.4442 36.2244 24.5234 36.2244C23.8018 36.2244 23.2232 36.0008 22.7878 35.5536C22.3523 35.1064 22.1345 34.4914 22.1345 33.7088C22.1345 32.6746 22.4456 31.8012 23.0677 31.0884C23.6898 30.3757 24.4612 30.0193 25.3819 30.0193C26.0787 30.0193 26.6573 30.2499 27.1176 30.7111C27.578 31.1723 27.8082 31.8081 27.8082 32.6187ZM57.1094 26.3717C57.1094 27.5456 56.8356 28.3422 56.2882 28.7615C55.7407 29.1808 54.9196 29.3904 53.8246 29.3904L52.6302 29.4323L53.2648 24.9462C53.3145 24.6387 53.4763 24.485 53.75 24.485H54.4219C54.9693 24.485 55.4048 24.513 55.7283 24.5689C56.0518 24.6248 56.3628 24.7995 56.6615 25.0929C56.9601 25.3864 57.1094 25.8127 57.1094 26.3717ZM70.2109 32.6187C70.2109 33.625 69.8937 34.4775 69.2591 35.1762C68.6246 35.875 67.8594 36.2244 66.9635 36.2244C66.2419 36.2244 65.6571 36.0008 65.2092 35.5536C64.7613 35.1064 64.5373 34.4914 64.5373 33.7088C64.5373 32.6746 64.8484 31.8012 65.4705 31.0884C66.0926 30.3757 66.864 30.0193 67.7847 30.0193C68.4815 30.0193 69.06 30.2499 69.5204 30.7111C69.9808 31.1723 70.2109 31.8081 70.2109 32.6187ZM19.1484 25.4493C19.1484 23.8002 18.6694 22.6053 17.7114 21.8646C16.7533 21.1239 15.5029 20.7536 13.9601 20.7536H7.98785C7.51505 20.7536 7.25376 21.0191 7.20399 21.5502L4.77778 38.6561C4.75289 38.8238 4.79022 38.9776 4.88976 39.1173C4.98929 39.2571 5.11372 39.327 5.26302 39.327H8.09983C8.59751 39.327 8.87124 39.0614 8.92101 38.5303L9.59288 33.9184C9.61777 33.6948 9.70486 33.5132 9.85417 33.3734C10.0035 33.2336 10.1901 33.1428 10.4141 33.1009C10.638 33.059 10.8495 33.038 11.0486 33.038C11.2477 33.038 11.4841 33.052 11.7578 33.0799C12.0315 33.1079 12.2057 33.1218 12.2804 33.1218C14.4204 33.1218 16.1001 32.444 17.3194 31.0884C18.5388 29.7328 19.1484 27.8531 19.1484 25.4493ZM30.6823 38.5303L32.2127 27.5876C32.2376 27.4199 32.2002 27.2661 32.1007 27.1264C32.0012 26.9866 31.8767 26.9167 31.7274 26.9167H28.8906C28.5422 26.9167 28.3307 27.3779 28.2561 28.3003C27.5842 27.1823 26.4022 26.6233 24.7101 26.6233C22.9184 26.6233 21.3942 27.3779 20.1376 28.8873C18.8809 30.3966 18.2526 32.1715 18.2526 34.2119C18.2526 35.861 18.6819 37.1747 19.5404 38.153C20.3989 39.1313 21.5498 39.6204 22.9931 39.6204C23.6898 39.6204 24.4115 39.4527 25.158 39.1173C25.9045 38.7819 26.5017 38.3347 26.9497 37.7757C26.8501 38.1111 26.8003 38.4046 26.8003 38.6561C26.8003 39.1033 26.9621 39.327 27.2856 39.327H29.8611C30.3339 39.327 30.6076 39.0614 30.6823 38.5303ZM47.3672 27.5037C47.3672 27.364 47.3174 27.2312 47.2179 27.1054C47.1183 26.9796 47.0064 26.9167 46.8819 26.9167H44.0078C43.7341 26.9167 43.5101 27.0565 43.3359 27.336L39.3793 33.8765L37.737 27.5876C37.6126 27.1403 37.3388 26.9167 36.9158 26.9167H34.1163C33.9919 26.9167 33.8799 26.9796 33.7804 27.1054C33.6808 27.2312 33.6311 27.364 33.6311 27.5037C33.6311 27.5596 33.8737 28.3842 34.3589 29.9774C34.8442 31.5706 35.3668 33.2896 35.9266 35.1343C36.4865 36.9791 36.7789 37.9574 36.8038 38.0692C34.7633 41.1997 33.7431 42.8767 33.7431 43.1003C33.7431 43.4637 33.9048 43.6454 34.2283 43.6454H37.1024C37.3762 43.6454 37.6001 43.5056 37.7743 43.2261L47.2925 27.7972C47.3423 27.7413 47.3672 27.6435 47.3672 27.5037ZM61.5512 25.4493C61.5512 23.8002 61.0722 22.6053 60.1141 21.8646C59.1561 21.1239 57.9057 20.7536 56.3628 20.7536H50.428C49.9303 20.7536 49.6565 21.0191 49.6068 21.5502L47.1806 38.6561C47.1557 38.8238 47.193 38.9776 47.2925 39.1173C47.3921 39.2571 47.5165 39.327 47.6658 39.327H50.7266C51.0252 39.327 51.2242 39.1453 51.3238 38.7819L51.9957 33.9184C52.0205 33.6948 52.1076 33.5132 52.2569 33.3734C52.4062 33.2336 52.5929 33.1428 52.8168 33.1009C53.0408 33.059 53.2523 33.038 53.4514 33.038C53.6505 33.038 53.8869 33.052 54.1606 33.0799C54.4343 33.1079 54.6085 33.1218 54.6832 33.1218C56.8232 33.1218 58.5029 32.444 59.7222 31.0884C60.9416 29.7328 61.5512 27.8531 61.5512 25.4493ZM73.0851 38.5303L74.6154 27.5876C74.6403 27.4199 74.603 27.2661 74.5035 27.1264C74.4039 26.9866 74.2795 26.9167 74.1302 26.9167H71.2934C70.945 26.9167 70.7335 27.3779 70.6589 28.3003C70.0119 27.1823 68.8299 26.6233 67.1128 26.6233C65.3212 26.6233 63.797 27.3779 62.5404 28.8873C61.2837 30.3966 60.6554 32.1715 60.6554 34.2119C60.6554 35.861 61.0846 37.1747 61.9431 38.153C62.8016 39.1313 63.9525 39.6204 65.3958 39.6204C66.1175 39.6204 66.8516 39.4527 67.5981 39.1173C68.3446 38.7819 68.9294 38.3347 69.3524 37.7757C69.3524 37.8036 69.3275 37.9294 69.2778 38.153C69.228 38.3766 69.2031 38.5443 69.2031 38.6561C69.2031 39.1033 69.3649 39.327 69.6884 39.327H72.2639C72.7367 39.327 73.0104 39.0614 73.0851 38.5303ZM81.2222 21.3825V21.3405C81.2222 20.9492 81.0605 20.7536 80.737 20.7536H77.9748C77.7011 20.7536 77.5394 20.9073 77.4896 21.2148L75.0634 38.6561L75.026 38.74C75.026 38.8797 75.0758 39.0125 75.1753 39.1383C75.2749 39.2641 75.3993 39.327 75.5486 39.327H78.0122C78.485 39.327 78.7462 39.0614 78.796 38.5303L81.2222 21.3825ZM14.6319 27.0006C14.5075 27.9789 14.184 28.6217 13.6615 28.9292C13.1389 29.2367 12.3924 29.3904 11.4219 29.3904L10.1901 29.4323L10.8247 24.9462C10.8744 24.6387 11.0362 24.485 11.3099 24.485H12.0191C13.0145 24.485 13.7361 24.6457 14.184 24.9672C14.6319 25.2886 14.7812 25.9664 14.6319 27.0006ZM86 5.36658V59.0323C86 60.4858 85.5272 61.7436 84.5816 62.8057C83.636 63.8679 82.5162 64.3989 81.2222 64.3989H4.77778C3.4838 64.3989 2.364 63.8679 1.4184 62.8057C0.472801 61.7436 0 60.4858 0 59.0323V5.36658C0 3.91313 0.472801 2.65534 1.4184 1.5932C2.364 0.531067 3.4838 0 4.77778 0H81.2222C82.5162 0 83.636 0.531067 84.5816 1.5932C85.5272 2.65534 86 3.91313 86 5.36658Z" fill="white"/>
</svg>
