<svg width="86" height="68" viewBox="0 0 86 68" fill="none" xmlns="http://www.w3.org/2000/svg">
<path d="M27.8082 34.4438C27.8082 35.535 27.4909 36.4419 26.8563 37.1645C26.2218 37.887 25.4442 38.2483 24.5234 38.2483C23.8018 38.2483 23.2232 38.0124 22.7878 37.5405C22.3523 37.0686 22.1345 36.4198 22.1345 35.594C22.1345 34.5028 22.4456 33.5812 23.0677 32.8292C23.6898 32.0771 24.4612 31.7011 25.3819 31.7011C26.0787 31.7011 26.6573 31.9444 27.1176 32.431C27.578 32.9176 27.8082 33.5886 27.8082 34.4438ZM57.1094 27.8524C57.1094 29.0911 56.8356 29.9316 56.2882 30.374C55.7407 30.8163 54.9196 31.0375 53.8246 31.0375L52.6302 31.0818L53.2648 26.3483C53.3145 26.0239 53.4763 25.8617 53.75 25.8617H54.4219C54.9693 25.8617 55.4048 25.8912 55.7283 25.9502C56.0518 26.0092 56.3628 26.1935 56.6615 26.5032C56.9601 26.8128 57.1094 27.2626 57.1094 27.8524ZM70.2109 34.4438C70.2109 35.5056 69.8937 36.4051 69.2591 37.1423C68.6246 37.8796 67.8594 38.2483 66.9635 38.2483C66.2419 38.2483 65.6571 38.0124 65.2092 37.5405C64.7613 37.0686 64.5373 36.4198 64.5373 35.594C64.5373 34.5028 64.8484 33.5812 65.4705 32.8292C66.0926 32.0771 66.864 31.7011 67.7847 31.7011C68.4815 31.7011 69.06 31.9444 69.5204 32.431C69.9808 32.9176 70.2109 33.5886 70.2109 34.4438ZM19.1484 26.8792C19.1484 25.1392 18.6694 23.8784 17.7114 23.0969C16.7533 22.3153 15.5029 21.9246 13.9601 21.9246H7.98785C7.51505 21.9246 7.25376 22.2047 7.20399 22.7651L4.77778 40.8141C4.75289 40.991 4.79022 41.1532 4.88976 41.3007C4.98929 41.4482 5.11372 41.5219 5.26302 41.5219H8.09983C8.59751 41.5219 8.87124 41.2417 8.92101 40.6814L9.59288 35.8152C9.61777 35.5793 9.70486 35.3876 9.85417 35.2401C10.0035 35.0927 10.1901 34.9968 10.4141 34.9526C10.638 34.9083 10.8495 34.8862 11.0486 34.8862C11.2477 34.8862 11.4841 34.901 11.7578 34.9305C12.0315 34.9599 12.2057 34.9747 12.2804 34.9747C14.4204 34.9747 16.1001 34.2595 17.3194 32.8292C18.5388 31.3988 19.1484 29.4155 19.1484 26.8792ZM30.6823 40.6814L32.2127 29.1353C32.2376 28.9584 32.2002 28.7962 32.1007 28.6487C32.0012 28.5012 31.8767 28.4275 31.7274 28.4275H28.8906C28.5422 28.4275 28.3307 28.9141 28.2561 29.8874C27.5842 28.7077 26.4022 28.1178 24.7101 28.1178C22.9184 28.1178 21.3942 28.9141 20.1376 30.5067C18.8809 32.0992 18.2526 33.972 18.2526 36.1249C18.2526 37.8649 18.6819 39.251 19.5404 40.2832C20.3989 41.3154 21.5498 41.8316 22.9931 41.8316C23.6898 41.8316 24.4115 41.6546 25.158 41.3007C25.9045 40.9468 26.5017 40.4749 26.9497 39.8851C26.8501 40.239 26.8003 40.5487 26.8003 40.8141C26.8003 41.286 26.9621 41.5219 27.2856 41.5219H29.8611C30.3339 41.5219 30.6076 41.2417 30.6823 40.6814ZM47.3672 29.0468C47.3672 28.8994 47.3174 28.7593 47.2179 28.6266C47.1183 28.4939 47.0064 28.4275 46.8819 28.4275H44.0078C43.7341 28.4275 43.5101 28.575 43.3359 28.8699L39.3793 35.771L37.737 29.1353C37.6126 28.6634 37.3388 28.4275 36.9158 28.4275H34.1163C33.9919 28.4275 33.8799 28.4939 33.7804 28.6266C33.6808 28.7593 33.6311 28.8994 33.6311 29.0468C33.6311 29.1058 33.8737 29.9758 34.3589 31.6569C34.8442 33.3379 35.3668 35.1516 35.9266 37.0981C36.4865 39.0446 36.7789 40.0768 36.8038 40.1948C34.7633 43.4978 33.7431 45.2674 33.7431 45.5033C33.7431 45.8867 33.9048 46.0784 34.2283 46.0784H37.1024C37.3762 46.0784 37.6001 45.9309 37.7743 45.636L47.2925 29.3565C47.3423 29.2975 47.3672 29.1943 47.3672 29.0468ZM61.5512 26.8792C61.5512 25.1392 61.0722 23.8784 60.1141 23.0969C59.1561 22.3153 57.9057 21.9246 56.3628 21.9246H50.428C49.9303 21.9246 49.6565 22.2047 49.6068 22.7651L47.1806 40.8141C47.1557 40.991 47.193 41.1532 47.2925 41.3007C47.3921 41.4482 47.5165 41.5219 47.6658 41.5219H50.7266C51.0252 41.5219 51.2242 41.3302 51.3238 40.9468L51.9957 35.8152C52.0205 35.5793 52.1076 35.3876 52.2569 35.2401C52.4062 35.0927 52.5929 34.9968 52.8168 34.9526C53.0408 34.9083 53.2523 34.8862 53.4514 34.8862C53.6505 34.8862 53.8869 34.901 54.1606 34.9305C54.4343 34.9599 54.6085 34.9747 54.6832 34.9747C56.8232 34.9747 58.5029 34.2595 59.7222 32.8292C60.9416 31.3988 61.5512 29.4155 61.5512 26.8792ZM73.0851 40.6814L74.6154 29.1353C74.6403 28.9584 74.603 28.7962 74.5035 28.6487C74.4039 28.5012 74.2795 28.4275 74.1302 28.4275H71.2934C70.945 28.4275 70.7335 28.9141 70.6589 29.8874C70.0119 28.7077 68.8299 28.1178 67.1128 28.1178C65.3212 28.1178 63.797 28.9141 62.5404 30.5067C61.2837 32.0992 60.6554 33.972 60.6554 36.1249C60.6554 37.8649 61.0846 39.251 61.9431 40.2832C62.8016 41.3154 63.9525 41.8316 65.3958 41.8316C66.1175 41.8316 66.8516 41.6546 67.5981 41.3007C68.3446 40.9468 68.9294 40.4749 69.3524 39.8851C69.3524 39.9146 69.3275 40.0473 69.2778 40.2832C69.228 40.5192 69.2031 40.6961 69.2031 40.8141C69.2031 41.286 69.3649 41.5219 69.6884 41.5219H72.2639C72.7367 41.5219 73.0104 41.2417 73.0851 40.6814ZM81.2222 22.5881V22.5439C81.2222 22.131 81.0605 21.9246 80.737 21.9246H77.9748C77.7011 21.9246 77.5394 22.0868 77.4896 22.4112L75.0634 40.8141L75.026 40.9026C75.026 41.05 75.0758 41.1901 75.1753 41.3228C75.2749 41.4555 75.3993 41.5219 75.5486 41.5219H78.0122C78.485 41.5219 78.7462 41.2417 78.796 40.6814L81.2222 22.5881ZM14.6319 28.516C14.5075 29.5482 14.184 30.2265 13.6615 30.5509C13.1389 30.8753 12.3924 31.0375 11.4219 31.0375L10.1901 31.0818L10.8247 26.3483C10.8744 26.0239 11.0362 25.8617 11.3099 25.8617H12.0191C13.0145 25.8617 13.7361 26.0313 14.184 26.3704C14.6319 26.7096 14.7812 27.4248 14.6319 28.516ZM86 5.68929V62.3136C86 63.8472 85.5272 65.1743 84.5816 66.295C83.636 67.4157 82.5162 67.9761 81.2222 67.9761H4.77778C3.4838 67.9761 2.364 67.4157 1.4184 66.295C0.472801 65.1743 0 63.8472 0 62.3136V5.68929C0 4.15571 0.472801 2.82858 1.4184 1.70789C2.364 0.587201 3.4838 0.0268555 4.77778 0.0268555H81.2222C82.5162 0.0268555 83.636 0.587201 84.5816 1.70789C85.5272 2.82858 86 4.15571 86 5.68929Z" fill="#3D4056"/>
</svg>
