<svg width="51" height="51" viewBox="0 0 51 51" fill="none" xmlns="http://www.w3.org/2000/svg">
<path d="M41.4375 0C44.0716 0 46.3239 0.935221 48.1943 2.80566C50.0648 4.67611 51 6.92839 51 9.5625V41.4375C51 44.0716 50.0648 46.3239 48.1943 48.1943C46.3239 50.0648 44.0716 51 41.4375 51H17.3652C19.2467 48.2995 20.4421 45.9753 20.9512 44.0273C21.1504 43.2747 21.737 40.9616 22.7109 37.0879C23.1758 37.9512 23.9893 38.6927 25.1514 39.3125C26.3135 39.9323 27.5586 40.2422 28.8867 40.2422C32.8932 40.2422 36.1637 38.6097 38.6982 35.3447C41.2327 32.0798 42.5 27.946 42.5 22.9434C42.5 21.084 42.1126 19.2855 41.3379 17.5479C40.5632 15.8102 39.4951 14.2718 38.1338 12.9326C36.7725 11.5934 35.0846 10.5199 33.0703 9.71191C31.056 8.90397 28.8757 8.5 26.5293 8.5C24.2272 8.5 22.0745 8.81543 20.0713 9.44629C18.068 10.0771 16.3747 10.9238 14.9912 11.9863C13.6077 13.0488 12.418 14.2607 11.4219 15.6221C10.4258 16.9834 9.68978 18.4001 9.21387 19.8721C8.73796 21.3441 8.5 22.8105 8.5 24.2715C8.5 26.5293 8.93717 28.5215 9.81152 30.248C10.6859 31.9746 11.9753 33.1921 13.6797 33.9004C13.9674 34.0111 14.2275 34.0111 14.46 33.9004C14.6924 33.7897 14.8529 33.5794 14.9414 33.2695C15.1628 32.2956 15.3288 31.6204 15.4395 31.2441C15.5723 30.735 15.4505 30.2702 15.0742 29.8496C13.9674 28.4772 13.4141 26.8171 13.4141 24.8691C13.4141 21.5488 14.5596 18.71 16.8506 16.3525C19.1416 13.9951 22.1354 12.8164 25.832 12.8164C29.1302 12.8164 31.7035 13.7129 33.5518 15.5059C35.4001 17.2988 36.3242 19.623 36.3242 22.4785C36.3242 26.1973 35.5771 29.3626 34.083 31.9746C32.5889 34.5866 30.6686 35.8926 28.3223 35.8926C26.9941 35.8926 25.9206 35.4111 25.1016 34.4482C24.2826 33.4854 24.028 32.3398 24.3379 31.0117C24.515 30.2591 24.8083 29.2354 25.2178 27.9404C25.6273 26.6455 25.9538 25.5166 26.1973 24.5537C26.4408 23.5908 26.5625 22.7663 26.5625 22.0801C26.5625 20.9954 26.2692 20.0934 25.6826 19.374C25.096 18.6546 24.2604 18.2949 23.1758 18.2949C21.8255 18.2949 20.68 18.9202 19.7393 20.1709C18.7985 21.4215 18.3281 22.9655 18.3281 24.8027C18.3281 26.3965 18.5938 27.7357 19.125 28.8203L15.8711 42.5664C15.3398 44.7799 15.2624 47.5911 15.6387 51H9.5625C6.92839 51 4.67611 50.0648 2.80566 48.1943C0.935221 46.3239 0 44.0716 0 41.4375V9.5625C0 6.92839 0.935221 4.67611 2.80566 2.80566C4.67611 0.935221 6.92839 0 9.5625 0H41.4375Z" fill="#708B7D"/>
</svg>
