<svg width="86" height="68" viewBox="0 0 86 68" fill="none" xmlns="http://www.w3.org/2000/svg">
<path d="M0 0.0268555H86V8.4679H0V0.0268555ZM0 59.1141H86V67.5552H0V59.1141ZM72.7951 46.0896L72.1149 42.4178H64.4961L63.2843 46.0601L57.1783 46.0727C61.1069 35.9182 64.0192 28.3888 65.919 23.5014C66.4155 22.2226 67.2989 21.5726 68.5967 21.5811C69.5896 21.5895 71.2119 21.5895 73.4635 21.5811L78.1818 46.0812L72.7951 46.0938V46.0896ZM66.2122 37.3869H71.122L69.2847 28.1862L66.2122 37.3869ZM26.8633 21.5768L33.0005 21.5853L23.5132 46.0896L17.2977 46.0854C15.1985 37.3489 13.6545 30.8662 12.6694 26.6499C12.3684 25.3542 11.7703 24.451 10.6132 24.0247C9.58509 23.6449 7.87291 23.054 5.47273 22.2563V21.5811H15.2806C16.9772 21.5811 17.9662 22.4674 18.2867 24.2822L20.7104 38.1635L26.8633 21.5768ZM41.4325 21.5853L36.5852 46.0854L30.7411 46.077L35.5884 21.5768L41.4325 21.5853ZM53.2848 21.1295C55.0283 21.1295 57.233 21.7119 58.4995 22.2563L57.4754 27.3378C56.33 26.8398 54.4458 26.1688 52.8626 26.1983C50.5563 26.2363 49.1334 27.2788 49.1334 28.279C49.1334 29.8997 51.6039 30.7185 54.1526 32.4953C57.0571 34.5212 57.4363 36.336 57.4011 38.3112C57.362 42.4093 54.1526 46.4526 47.3782 46.4526C44.2861 46.4019 43.172 46.1234 40.6545 45.1611L41.7178 39.8601C44.2822 41.0165 45.3728 41.3837 47.5619 41.3837C49.5751 41.3837 51.299 40.5101 51.3146 38.9865C51.3225 37.9018 50.7087 37.3658 48.4532 36.0237C46.1976 34.6858 43.0391 32.833 43.0782 29.102C43.129 24.3328 47.3274 21.1295 53.2809 21.1295H53.2848Z" fill="#3D4056"/>
</svg>
