<svg width="86" height="64" viewBox="0 0 86 64" fill="none" xmlns="http://www.w3.org/2000/svg">
<path d="M0 0H86V8H0V0ZM0 56H86V64H0V56ZM72.7951 43.656L72.1149 40.176H64.4961L63.2843 43.628L57.1783 43.64C61.1069 34.016 64.0192 26.88 65.919 22.248C66.4155 21.036 67.2989 20.42 68.5967 20.428C69.5896 20.436 71.2119 20.436 73.4635 20.428L78.1818 43.648L72.7951 43.66V43.656ZM66.2122 35.408H71.122L69.2847 26.688L66.2122 35.408ZM26.8633 20.424L33.0005 20.432L23.5132 43.656L17.2977 43.652C15.1985 35.372 13.6545 29.228 12.6694 25.232C12.3684 24.004 11.7703 23.148 10.6132 22.744C9.58509 22.384 7.87291 21.824 5.47273 21.068V20.428H15.2806C16.9772 20.428 17.9662 21.268 18.2867 22.988L20.7104 36.144L26.8633 20.424ZM41.4325 20.432L36.5852 43.652L30.7411 43.644L35.5884 20.424L41.4325 20.432ZM53.2848 20C55.0283 20 57.233 20.552 58.4995 21.068L57.4754 25.884C56.33 25.412 54.4458 24.776 52.8626 24.804C50.5563 24.84 49.1334 25.828 49.1334 26.776C49.1334 28.312 51.6039 29.088 54.1526 30.772C57.0571 32.692 57.4363 34.412 57.4011 36.284C57.362 40.168 54.1526 44 47.3782 44C44.2861 43.952 43.172 43.688 40.6545 42.776L41.7178 37.752C44.2822 38.848 45.3728 39.196 47.5619 39.196C49.5751 39.196 51.299 38.368 51.3146 36.924C51.3225 35.896 50.7087 35.388 48.4532 34.116C46.1976 32.848 43.0391 31.092 43.0782 27.556C43.129 23.036 47.3274 20 53.2809 20H53.2848Z" fill="white"/>
</svg>
